<?xml version="1.0" encoding="UTF-8"?>
<svg id="Layer_1" data-name="Layer 1" xmlns="http://www.w3.org/2000/svg" viewBox="0 0 600 800">
  <defs>
    <style>
      .cls-1 {
        fill: #231f20;
      }
    </style>
  </defs>
  <path class="cls-1" d="m300,0C134.33,0,0,134.33,0,300c0,65.24,21.39,125.1,56.94,174.13.64,1.18.74,2.49,1.46,3.61l200,300c9.27,13.91,24.9,22.26,41.6,22.26s32.32-8.35,41.6-22.26l200-300c.74-1.13.83-2.44,1.46-3.61,35.55-49.03,56.94-108.89,56.94-174.13C600,134.33,465.68,0,300,0Zm0,400c-55.22,0-100-44.78-100-100s44.78-100,100-100,100,44.78,100,100-44.78,100-100,100Z"/>
</svg>